<svg width="87" height="87" viewBox="0 0 87 87" fill="none" xmlns="http://www.w3.org/2000/svg">
<circle cx="43.7647" cy="43.2353" r="43.2353" fill="#D9D9D9"/>
<path d="M55.5817 41.6775H26.6295C26.2164 41.6775 25.8202 41.8417 25.528 42.1338C25.2359 42.4259 25.0718 42.8221 25.0718 43.2353C25.0718 43.6484 25.2359 44.0446 25.528 44.3368C25.8202 44.6289 26.2164 44.793 26.6295 44.793H55.5817L44.2195 56.1521C43.927 56.4446 43.7627 56.8413 43.7627 57.255C43.7627 57.6686 43.927 58.0653 44.2195 58.3578C44.512 58.6503 44.9088 58.8147 45.3224 58.8147C45.7361 58.8147 46.1328 58.6503 46.4253 58.3578L60.445 44.3382C60.5901 44.1935 60.7052 44.0216 60.7837 43.8323C60.8622 43.6431 60.9026 43.4402 60.9026 43.2353C60.9026 43.0304 60.8622 42.8275 60.7837 42.6382C60.7052 42.449 60.5901 42.2771 60.445 42.1324L46.4253 28.1127C46.1328 27.8202 45.7361 27.6559 45.3224 27.6559C44.9088 27.6559 44.512 27.8202 44.2195 28.1127C43.927 28.4052 43.7627 28.8019 43.7627 29.2156C43.7627 29.6293 43.927 30.026 44.2195 30.3185L55.5817 41.6775Z" fill="#001F3F"/>
</svg>
