<svg width="87" height="87" viewBox="0 0 87 87" fill="none" xmlns="http://www.w3.org/2000/svg">
<circle cx="43.2353" cy="43.2353" r="43.2353" transform="matrix(-1 0 0 1 86.4706 0)" fill="#D9D9D9"/>
<path d="M31.4182 41.6775H60.3704C60.7836 41.6775 61.1798 41.8417 61.4719 42.1338C61.764 42.4259 61.9282 42.8221 61.9282 43.2353C61.9282 43.6484 61.764 44.0446 61.4719 44.3368C61.1798 44.6289 60.7836 44.793 60.3704 44.793H31.4182L42.7804 56.1521C43.0729 56.4446 43.2372 56.8413 43.2372 57.255C43.2372 57.6686 43.0729 58.0653 42.7804 58.3578C42.4879 58.6503 42.0912 58.8147 41.6775 58.8147C41.2639 58.8147 40.8671 58.6503 40.5746 58.3578L26.555 44.3382C26.4099 44.1935 26.2948 44.0216 26.2163 43.8323C26.1377 43.6431 26.0973 43.4402 26.0973 43.2353C26.0973 43.0304 26.1377 42.8275 26.2163 42.6382C26.2948 42.449 26.4099 42.2771 26.555 42.1324L40.5746 28.1127C40.8671 27.8202 41.2639 27.6559 41.6775 27.6559C42.0912 27.6559 42.4879 27.8202 42.7804 28.1127C43.0729 28.4052 43.2372 28.8019 43.2372 29.2156C43.2372 29.6293 43.0729 30.026 42.7804 30.3185L31.4182 41.6775Z" fill="#001F3F"/>
</svg>
