<svg width="36" height="32" viewBox="0 0 36 32" fill="none" xmlns="http://www.w3.org/2000/svg">
<path d="M5.41822 14.6775H34.3704C34.7836 14.6775 35.1798 14.8417 35.4719 15.1338C35.764 15.4259 35.9282 15.8221 35.9282 16.2353C35.9282 16.6484 35.764 17.0446 35.4719 17.3368C35.1798 17.6289 34.7836 17.793 34.3704 17.793H5.41822L16.7804 29.1521C17.0729 29.4446 17.2372 29.8413 17.2372 30.255C17.2372 30.6686 17.0729 31.0653 16.7804 31.3578C16.4879 31.6503 16.0912 31.8147 15.6775 31.8147C15.2639 31.8147 14.8671 31.6503 14.5746 31.3578L0.554951 17.3382C0.409885 17.1935 0.294788 17.0216 0.216259 16.8323C0.13773 16.6431 0.0973053 16.4402 0.0973053 16.2353C0.0973053 16.0304 0.13773 15.8275 0.216259 15.6382C0.294788 15.449 0.409885 15.2771 0.554951 15.1324L14.5746 1.11271C14.8671 0.82021 15.2639 0.655884 15.6775 0.655884C16.0912 0.655884 16.4879 0.82021 16.7804 1.11271C17.0729 1.40521 17.2372 1.80193 17.2372 2.21559C17.2372 2.62925 17.0729 3.02597 16.7804 3.31848L5.41822 14.6775Z" fill="#001F3F"/>
</svg>
