<svg width="22" height="22" viewBox="0 0 22 22" fill="none" xmlns="http://www.w3.org/2000/svg">
<path d="M20.1758 0.166655H1.82416C1.61787 0.16379 1.41303 0.20159 1.22135 0.277896C1.02968 0.354202 0.854904 0.467519 0.707023 0.611377C0.559142 0.755234 0.441047 0.926813 0.359484 1.11632C0.27792 1.30582 0.234485 1.50953 0.231659 1.71582V20.2842C0.234485 20.4904 0.27792 20.6942 0.359484 20.8837C0.441047 21.0732 0.559142 21.2447 0.707023 21.3886C0.854904 21.5325 1.02968 21.6458 1.22135 21.7221C1.41303 21.7984 1.61787 21.8362 1.82416 21.8333H20.1758C20.3821 21.8362 20.5869 21.7984 20.7786 21.7221C20.9703 21.6458 21.1451 21.5325 21.293 21.3886C21.4408 21.2447 21.5589 21.0732 21.6405 20.8837C21.7221 20.6942 21.7655 20.4904 21.7683 20.2842V1.71582C21.7655 1.50953 21.7221 1.30582 21.6405 1.11632C21.5589 0.926813 21.4408 0.755234 21.293 0.611377C21.1451 0.467519 20.9703 0.354202 20.7786 0.277896C20.5869 0.20159 20.3821 0.16379 20.1758 0.166655ZM6.76416 18.3017H3.51416V8.55166H6.76416V18.3017ZM5.13916 7.18666C4.69094 7.18666 4.26108 7.0086 3.94415 6.69167C3.62721 6.37473 3.44916 5.94487 3.44916 5.49666C3.44916 5.04844 3.62721 4.61858 3.94415 4.30165C4.26108 3.98471 4.69094 3.80666 5.13916 3.80666C5.37716 3.77966 5.61818 3.80325 5.84644 3.87586C6.0747 3.94848 6.28504 4.06849 6.4637 4.22803C6.64236 4.38758 6.78531 4.58306 6.88319 4.80168C6.98106 5.0203 7.03165 5.25713 7.03165 5.49666C7.03165 5.73618 6.98106 5.97301 6.88319 6.19163C6.78531 6.41025 6.64236 6.60574 6.4637 6.76528C6.28504 6.92483 6.0747 7.04483 5.84644 7.11745C5.61818 7.19006 5.37716 7.21365 5.13916 7.18666ZM18.4858 18.3017H15.2358V13.0692C15.2358 11.7583 14.77 10.9025 13.5892 10.9025C13.2237 10.9052 12.8679 11.0198 12.5696 11.2309C12.2713 11.4421 12.0449 11.7396 11.9208 12.0833C11.836 12.3379 11.7993 12.6061 11.8125 12.8742V18.2908H8.56249V8.54082H11.8125V9.91666C12.1077 9.40435 12.5371 8.9823 13.0545 8.69596C13.5718 8.40961 14.1574 8.26983 14.7483 8.29166C16.915 8.29166 18.4858 9.68916 18.4858 12.69V18.3017Z" fill="#001F3F"/>
</svg>
