<svg width="19" height="15" viewBox="0 0 19 15" fill="none" xmlns="http://www.w3.org/2000/svg">
<path d="M0.059375 2.22156C0.179097 1.69698 0.473403 1.22859 0.894094 0.893116C1.31479 0.557642 1.83693 0.374964 2.375 0.375H16.625C17.1631 0.374964 17.6852 0.557642 18.1059 0.893116C18.5266 1.22859 18.8209 1.69698 18.9406 2.22156L9.5 7.99163L0.059375 2.22156ZM0 3.57769V12.0137L6.89106 7.78856L0 3.57769ZM8.02869 8.48563L0.226812 13.2677C0.419575 13.6742 0.723813 14.0175 1.10412 14.2578C1.48442 14.4981 1.92514 14.6254 2.375 14.625H16.625C17.0748 14.6251 17.5153 14.4975 17.8954 14.257C18.2755 14.0165 18.5795 13.673 18.772 13.2665L10.9701 8.48444L9.5 9.38338L8.02869 8.48563ZM12.1089 7.78975L19 12.0137V3.57769L12.1089 7.78856V7.78975Z" fill="#001F3F"/>
</svg>
