<svg width="17" height="24" viewBox="0 0 17 24" fill="none" xmlns="http://www.w3.org/2000/svg">
<path d="M2.86786 0.526578L4.17563 0.113773C5.39961 -0.272631 6.7086 0.352576 7.23317 1.57419L8.27744 4.00782C8.73279 5.06743 8.48023 6.31425 7.65331 7.08946L5.35469 9.24708C5.49676 10.5383 5.93511 11.8091 6.67096 13.0595C7.37017 14.2694 8.30788 15.3283 9.42857 16.1736L12.1923 15.2616C13.239 14.9171 14.3792 15.3144 15.0215 16.2468L16.5175 18.4188C17.2655 19.5036 17.1307 20.9988 16.2042 21.918L15.2109 22.9032C14.2225 23.8837 12.8115 24.2401 11.505 23.8369C8.42194 22.8864 5.58783 20.0652 3.00143 15.3732C0.411382 10.6739 -0.501751 6.68505 0.259598 3.41141C0.580166 2.0338 1.57344 0.935783 2.87028 0.526578H2.86786Z" fill="#001F3F"/>
</svg>
