<svg width="36" height="32" viewBox="0 0 36 32" fill="none" xmlns="http://www.w3.org/2000/svg">
<path d="M30.5817 14.6775H1.62952C1.21638 14.6775 0.820163 14.8417 0.52803 15.1338C0.235896 15.4259 0.0717773 15.8221 0.0717773 16.2353C0.0717773 16.6484 0.235896 17.0446 0.52803 17.3368C0.820163 17.6289 1.21638 17.793 1.62952 17.793H30.5817L19.2195 29.1521C18.927 29.4446 18.7627 29.8413 18.7627 30.255C18.7627 30.6686 18.927 31.0653 19.2195 31.3578C19.512 31.6503 19.9088 31.8147 20.3224 31.8147C20.7361 31.8147 21.1328 31.6503 21.4253 31.3578L35.445 17.3382C35.5901 17.1935 35.7052 17.0216 35.7837 16.8323C35.8622 16.6431 35.9026 16.4402 35.9026 16.2353C35.9026 16.0304 35.8622 15.8275 35.7837 15.6382C35.7052 15.449 35.5901 15.2771 35.445 15.1324L21.4253 1.11271C21.1328 0.82021 20.7361 0.655884 20.3224 0.655884C19.9088 0.655884 19.512 0.82021 19.2195 1.11271C18.927 1.40521 18.7627 1.80193 18.7627 2.21559C18.7627 2.62925 18.927 3.02597 19.2195 3.31848L30.5817 14.6775Z" fill="#001F3F"/>
</svg>
