<svg width="24" height="19" viewBox="0 0 24 19" fill="none" xmlns="http://www.w3.org/2000/svg">
<path d="M23.3317 2.49992C22.4975 2.87909 21.5983 3.12825 20.6667 3.24742C21.62 2.67325 22.3567 1.76325 22.7033 0.669085C21.8042 1.21075 20.8075 1.58992 19.7567 1.80659C18.9008 0.874919 17.6983 0.333252 16.3333 0.333252C13.7875 0.333252 11.7075 2.41325 11.7075 4.98075C11.7075 5.34909 11.7508 5.70659 11.8267 6.04242C7.97 5.84742 4.53584 3.99492 2.25 1.18909C1.84917 1.87159 1.62167 2.67325 1.62167 3.51825C1.62167 5.13242 2.43417 6.56242 3.69083 7.37492C2.92167 7.37492 2.20667 7.15825 1.57834 6.83325V6.86575C1.57834 9.11909 3.18167 11.0041 5.305 11.4266C4.62329 11.6131 3.9076 11.6391 3.21417 11.5024C3.50841 12.4259 4.08467 13.234 4.86194 13.8131C5.63921 14.3922 6.5784 14.7131 7.5475 14.7308C5.90477 16.0312 3.8685 16.7342 1.77333 16.7241C1.405 16.7241 1.03667 16.7024 0.668335 16.6591C2.72667 17.9808 5.175 18.7499 7.79667 18.7499C16.3333 18.7499 21.0242 11.6649 21.0242 5.52242C21.0242 5.31659 21.0242 5.12158 21.0133 4.91575C21.9233 4.26575 22.7033 3.44242 23.3317 2.49992Z" fill="#001F3F"/>
</svg>
